<svg viewBox="0 0 30.5 30.5" xmlns="http://www.w3.org/2000/svg">
<g data-name="Layer 2">
<path d="M3.231 10.5H9.25a1.25 1.25 0 0 0 0-2.5H5.367a13.207 13.207 0 0 1 11.048-5.5 12.757 12.757 0 0 1 11.69 7.65 1.25 1.25 0 0 0 2.29-1.002A15.257 15.257 0 0 0 16.415 0 15.473 15.473 0 0 0 2.5 7.936V1.25a1.25 1.25 0 0 0-2.5 0v8a1.25 1.25 0 0 0 1.25 1.25ZM29.25 20h-8a1.25 1.25 0 0 0 0 2.5h3.95a11.01 11.01 0 0 1-9.95 5.5 12.757 12.757 0 0 1-11.69-7.65 1.25 1.25 0 0 0-2.29 1.002A15.257 15.257 0 0 0 15.25 30.5 13.625 13.625 0 0 0 28 22.584v6.666a1.25 1.25 0 0 0 2.5 0v-8A1.25 1.25 0 0 0 29.25 20Z" 
fill="#fff" class="fill-000000">
</path></g></svg>